<svg width="1020" height="896" viewBox="0 0 1020 896" fill="none" xmlns="http://www.w3.org/2000/svg">
<path d="M567 420C975.5 341.5 614.5 44.186 1015 5.18604" stroke="#EE4F3C" stroke-width="10" stroke-linecap="round" stroke-linejoin="round"/>
<path d="M5.5 891C15.8333 757.5 111.7 525.986 438.5 463.186" stroke="#FEC247" stroke-width="10" stroke-linecap="round"/>
<path d="M557 8H583.968C747.411 8 829.133 8 884.29 52.9169C894.842 61.51 904.49 71.1575 913.083 81.7097C958 136.867 958 218.589 958 382.032V556.5C958 667.233 868.233 757 757.5 757V757C646.767 757 557 667.233 557 556.5V8Z" fill="#EE4F3C"/>
<mask id="mask0_1_958" style="mask-type:alpha" maskUnits="userSpaceOnUse" x="557" y="8" width="401" height="749">
<path d="M557 8H583.968C747.411 8 829.133 8 884.29 52.9169C894.842 61.51 904.49 71.1575 913.083 81.7097C958 136.867 958 218.589 958 382.032V556.5C958 667.233 868.233 757 757.5 757V757C646.767 757 557 667.233 557 556.5V8Z" fill="#C4C4C4"/>
</mask>
<g mask="url(#mask0_1_958)">
<path d="M14 935.186C24.3333 801.686 126.7 518.986 453.5 456.186C862 377.686 621.5 42.1859 1022 3.18594C1342.4 -28.0141 1474.83 19.8526 1501 47.6859" stroke="white" stroke-width="10"/>
</g>
<path d="M126 556.5C126 556.964 126 557.196 126 557.393C126.217 667.543 215.457 756.783 325.607 757C325.804 757 326.036 757 326.5 757V757C326.964 757 327.196 757 327.393 757C437.543 756.783 526.783 667.543 527 557.393C527 557.196 527 556.964 527 556.5V8H500.968C337.115 8 255.189 8 199.894 53.0292C189.315 61.6437 179.644 71.3154 171.029 81.894C126 137.189 126 219.115 126 382.968V556.5Z" fill="#FEC247"/>
<mask id="mask1_1_958" style="mask-type:alpha" maskUnits="userSpaceOnUse" x="126" y="8" width="401" height="749">
<path d="M126 556.5C126 556.964 126 557.196 126 557.393C126.217 667.543 215.457 756.783 325.607 757C325.804 757 326.036 757 326.5 757V757C326.964 757 327.196 757 327.393 757C437.543 756.783 526.783 667.543 527 557.393C527 557.196 527 556.964 527 556.5V8H500.968C337.115 8 255.189 8 199.894 53.0292C189.315 61.6437 179.644 71.3154 171.029 81.894C126 137.189 126 219.115 126 382.968V556.5Z" fill="#6B5ACC"/>
</mask>
<g mask="url(#mask1_1_958)">
<path d="M-417 1361.19C-406.667 1227.69 -304.3 944.986 22.5 882.186C431 803.686 190.5 468.186 591 429.186C911.4 397.986 1043.83 445.853 1070 473.686" stroke="white" stroke-width="10"/>
</g>
</svg>
