<svg width="202" height="174" viewBox="0 0 202 174" fill="none" xmlns="http://www.w3.org/2000/svg">
<g id="Group 202">
<circle id="Ellipse 12" cx="3" cy="87" r="3" transform="rotate(90 3 87)" fill="white"/>
<circle id="Ellipse 9" cx="3" cy="31" r="3" transform="rotate(90 3 31)" fill="white"/>
<circle id="Ellipse 13" cx="3" cy="143" r="3" transform="rotate(90 3 143)" fill="white"/>
<circle id="Ellipse 10" cx="3" cy="3" r="3" transform="rotate(90 3 3)" fill="white"/>
<circle id="Ellipse 14" cx="3" cy="115" r="3" transform="rotate(90 3 115)" fill="white"/>
<circle id="Ellipse 11" cx="3" cy="59" r="3" transform="rotate(90 3 59)" fill="white"/>
<circle id="Ellipse 15" cx="3" cy="171" r="3" transform="rotate(90 3 171)" fill="white"/>
<circle id="Ellipse 12_2" cx="59" cy="87" r="3" transform="rotate(90 59 87)" fill="white"/>
<circle id="Ellipse 9_2" cx="59" cy="31" r="3" transform="rotate(90 59 31)" fill="white"/>
<circle id="Ellipse 13_2" cx="59" cy="143" r="3" transform="rotate(90 59 143)" fill="white"/>
<circle id="Ellipse 10_2" cx="59" cy="3" r="3" transform="rotate(90 59 3)" fill="white"/>
<circle id="Ellipse 14_2" cx="59" cy="115" r="3" transform="rotate(90 59 115)" fill="white"/>
<circle id="Ellipse 11_2" cx="59" cy="59" r="3" transform="rotate(90 59 59)" fill="white"/>
<circle id="Ellipse 15_2" cx="59" cy="171" r="3" transform="rotate(90 59 171)" fill="white"/>
<circle id="Ellipse 12_3" cx="115" cy="87" r="3" transform="rotate(90 115 87)" fill="white"/>
<circle id="Ellipse 9_3" cx="115" cy="31" r="3" transform="rotate(90 115 31)" fill="white"/>
<circle id="Ellipse 13_3" cx="115" cy="143" r="3" transform="rotate(90 115 143)" fill="white"/>
<circle id="Ellipse 10_3" cx="115" cy="3" r="3" transform="rotate(90 115 3)" fill="white"/>
<circle id="Ellipse 14_3" cx="115" cy="115" r="3" transform="rotate(90 115 115)" fill="white"/>
<circle id="Ellipse 11_3" cx="115" cy="59" r="3" transform="rotate(90 115 59)" fill="white"/>
<circle id="Ellipse 15_3" cx="115" cy="171" r="3" transform="rotate(90 115 171)" fill="white"/>
<circle id="Ellipse 12_4" cx="171" cy="87" r="3" transform="rotate(90 171 87)" fill="white"/>
<circle id="Ellipse 9_4" cx="171" cy="31" r="3" transform="rotate(90 171 31)" fill="white"/>
<circle id="Ellipse 13_4" cx="171" cy="143" r="3" transform="rotate(90 171 143)" fill="white"/>
<circle id="Ellipse 10_4" cx="171" cy="3" r="3" transform="rotate(90 171 3)" fill="white"/>
<circle id="Ellipse 14_4" cx="171" cy="115" r="3" transform="rotate(90 171 115)" fill="white"/>
<circle id="Ellipse 11_4" cx="171" cy="59" r="3" transform="rotate(90 171 59)" fill="white"/>
<circle id="Ellipse 15_4" cx="171" cy="171" r="3" transform="rotate(90 171 171)" fill="white"/>
<circle id="Ellipse 12_5" cx="31" cy="87" r="3" transform="rotate(90 31 87)" fill="white"/>
<circle id="Ellipse 9_5" cx="31" cy="31" r="3" transform="rotate(90 31 31)" fill="white"/>
<circle id="Ellipse 13_5" cx="31" cy="143" r="3" transform="rotate(90 31 143)" fill="white"/>
<circle id="Ellipse 10_5" cx="31" cy="3" r="3" transform="rotate(90 31 3)" fill="white"/>
<circle id="Ellipse 14_5" cx="31" cy="115" r="3" transform="rotate(90 31 115)" fill="white"/>
<circle id="Ellipse 11_5" cx="31" cy="59" r="3" transform="rotate(90 31 59)" fill="white"/>
<circle id="Ellipse 15_5" cx="31" cy="171" r="3" transform="rotate(90 31 171)" fill="white"/>
<circle id="Ellipse 12_6" cx="87" cy="87" r="3" transform="rotate(90 87 87)" fill="white"/>
<circle id="Ellipse 9_6" cx="87" cy="31" r="3" transform="rotate(90 87 31)" fill="white"/>
<circle id="Ellipse 13_6" cx="87" cy="143" r="3" transform="rotate(90 87 143)" fill="white"/>
<circle id="Ellipse 10_6" cx="87" cy="3" r="3" transform="rotate(90 87 3)" fill="white"/>
<circle id="Ellipse 14_6" cx="87" cy="115" r="3" transform="rotate(90 87 115)" fill="white"/>
<circle id="Ellipse 11_6" cx="87" cy="59" r="3" transform="rotate(90 87 59)" fill="white"/>
<circle id="Ellipse 15_6" cx="87" cy="171" r="3" transform="rotate(90 87 171)" fill="white"/>
<circle id="Ellipse 12_7" cx="143" cy="87" r="3" transform="rotate(90 143 87)" fill="white"/>
<circle id="Ellipse 9_7" cx="143" cy="31" r="3" transform="rotate(90 143 31)" fill="white"/>
<circle id="Ellipse 13_7" cx="143" cy="143" r="3" transform="rotate(90 143 143)" fill="white"/>
<circle id="Ellipse 10_7" cx="143" cy="3" r="3" transform="rotate(90 143 3)" fill="white"/>
<circle id="Ellipse 14_7" cx="143" cy="115" r="3" transform="rotate(90 143 115)" fill="white"/>
<circle id="Ellipse 11_7" cx="143" cy="59" r="3" transform="rotate(90 143 59)" fill="white"/>
<circle id="Ellipse 15_7" cx="143" cy="171" r="3" transform="rotate(90 143 171)" fill="white"/>
<circle id="Ellipse 12_8" cx="199" cy="87" r="3" transform="rotate(90 199 87)" fill="white"/>
<circle id="Ellipse 9_8" cx="199" cy="31" r="3" transform="rotate(90 199 31)" fill="white"/>
<circle id="Ellipse 13_8" cx="199" cy="143" r="3" transform="rotate(90 199 143)" fill="white"/>
<circle id="Ellipse 10_8" cx="199" cy="3" r="3" transform="rotate(90 199 3)" fill="white"/>
<circle id="Ellipse 14_8" cx="199" cy="115" r="3" transform="rotate(90 199 115)" fill="white"/>
<circle id="Ellipse 11_8" cx="199" cy="59" r="3" transform="rotate(90 199 59)" fill="white"/>
<circle id="Ellipse 15_8" cx="199" cy="171" r="3" transform="rotate(90 199 171)" fill="white"/>
</g>
</svg>
